<?xml version="1.0" encoding="utf-8"?>
<!-- Generator: Adobe Illustrator 25.0.0, SVG Export Plug-In . SVG Version: 6.00 Build 0)  -->
<svg version="1.1" id="Layer_1" xmlns="http://www.w3.org/2000/svg" xmlns:xlink="http://www.w3.org/1999/xlink" x="0px" y="0px"
	 viewBox="0 0 29.87 30.64" style="enable-background:new 0 0 29.87 30.64;" xml:space="preserve">
<style type="text/css">
	.st0{clip-path:url(#SVGID_2_);}
	.st1{clip-path:url(#SVGID_4_);fill:none;stroke:#3CC1B7;stroke-width:1.2663;stroke-linecap:square;}
	.st2{clip-path:url(#SVGID_6_);fill:none;stroke:#3CC1B7;stroke-width:1.2663;stroke-linecap:square;}
	.st3{clip-path:url(#SVGID_8_);fill:none;stroke:#3CC1B7;stroke-width:1.2663;stroke-linecap:square;}
	.st4{clip-path:url(#SVGID_10_);fill:none;stroke:#3CC1B7;stroke-width:1.2663;stroke-linecap:square;}
	.st5{clip-path:url(#SVGID_12_);fill:none;stroke:#3CC1B7;stroke-width:1.2663;stroke-linecap:square;}
	.st6{clip-path:url(#SVGID_14_);fill:none;stroke:#3CC1B7;stroke-width:1.2663;stroke-linecap:square;}
	.st7{clip-path:url(#SVGID_16_);fill:none;stroke:#3CC1B7;stroke-width:1.2663;stroke-linecap:square;}
</style>
<g>
	<g>
		<defs>
			<rect id="SVGID_1_" x="1.85" y="2.18" width="25.9" height="26.23"/>
		</defs>
		<clipPath id="SVGID_2_">
			<use xlink:href="#SVGID_1_"  style="overflow:visible;"/>
		</clipPath>
		<g class="st0">
			<g>
				<defs>
					<rect id="SVGID_3_" x="1.85" y="2.18" width="25.9" height="26.23"/>
				</defs>
				<clipPath id="SVGID_4_">
					<use xlink:href="#SVGID_3_"  style="overflow:visible;"/>
				</clipPath>
				<path class="st1" d="M7.42,21.11c1.81,0,3.25-1.52,3.25-3.29c0-1.84-1.5-3.29-3.25-3.29c-1.81,0-3.25,1.52-3.25,3.29
					C4.1,19.59,5.6,21.11,7.42,21.11L7.42,21.11z"/>
			</g>
			<g>
				<defs>
					<rect id="SVGID_5_" x="1.85" y="2.18" width="25.9" height="26.23"/>
				</defs>
				<clipPath id="SVGID_6_">
					<use xlink:href="#SVGID_5_"  style="overflow:visible;"/>
				</clipPath>
				<path class="st2" d="M2.48,27.76c0-2.72,2.19-5,4.94-5c2.69,0,4.94,2.22,4.94,5"/>
			</g>
			<g>
				<defs>
					<rect id="SVGID_7_" x="1.85" y="2.18" width="25.9" height="26.23"/>
				</defs>
				<clipPath id="SVGID_8_">
					<use xlink:href="#SVGID_7_"  style="overflow:visible;"/>
				</clipPath>
				<path class="st3" d="M24.99,16.11c0.69,1.2,0.56,2.72-0.31,3.8c-0.88,1.08-2.31,1.46-3.63,1.01c-1.31-0.51-2.19-1.71-2.19-3.1"
					/>
			</g>
			<g>
				<defs>
					<rect id="SVGID_9_" x="1.85" y="2.18" width="25.9" height="26.23"/>
				</defs>
				<clipPath id="SVGID_10_">
					<use xlink:href="#SVGID_9_"  style="overflow:visible;"/>
				</clipPath>
				<path class="st4" d="M17.23,27.76c0-2.72,2.19-5,4.94-5c2.69,0,4.94,2.22,4.94,5"/>
			</g>
			<g>
				<defs>
					<rect id="SVGID_11_" x="1.85" y="2.18" width="25.9" height="26.23"/>
				</defs>
				<clipPath id="SVGID_12_">
					<use xlink:href="#SVGID_11_"  style="overflow:visible;"/>
				</clipPath>
				<polygon class="st5" points="10.67,12.76 13.92,12.76 13.92,17.76 18.86,12.76 23.8,12.76 23.8,2.82 10.67,2.82 10.67,12.76 
					10.67,12.76 				"/>
			</g>
			<g>
				<defs>
					<rect id="SVGID_13_" x="1.85" y="2.18" width="25.9" height="26.23"/>
				</defs>
				<clipPath id="SVGID_14_">
					<use xlink:href="#SVGID_13_"  style="overflow:visible;"/>
				</clipPath>
				<line class="st6" x1="13.98" y1="6.11" x2="20.55" y2="6.11"/>
			</g>
			<g>
				<defs>
					<rect id="SVGID_15_" x="1.85" y="2.18" width="25.9" height="26.23"/>
				</defs>
				<clipPath id="SVGID_16_">
					<use xlink:href="#SVGID_15_"  style="overflow:visible;"/>
				</clipPath>
				<line class="st7" x1="13.98" y1="9.46" x2="20.55" y2="9.46"/>
			</g>
		</g>
	</g>
</g>
</svg>
